# xmcd CD database file
#
# Track frame offsets:
#	150
#	33266
#	58975
#	81465
#	95639
#	121974
#	150415
#	187482
#	215731
#	238244
#	257902
#	288733
#	319257
#
# Disc length: 4622 seconds
#
# Revision: 0
# Processed by: cddbd v1.5.2PL0 Copyright (c) Steve Scherf et al.
# Submitted via: CDex 1.70beta2
#
DISCID=d1120c0d
DTITLE=The Art of Jazz - 1959 Jazz' Greatest Year CD3 - (V-A)
DYEAR=1959
DGENRE=Jazz
TTITLE0=Better Git It In Your Soul
TTITLE1=Goodbye Pork Pie Hat
TTITLE2=Boogie Stop Shuffle
TTITLE3=Self Portrait In Three Colours
TTITLE4=Open Letter To The Duke
TTITLE5=Bird Calls
TTITLE6=Fables Of Faubus
TTITLE7=Jelly Roll
TTITLE8=Lonely Woman
TTITLE9=Eventually
TTITLE10=Focus On Sanity
TTITLE11=Congeniality
TTITLE12=Chronology
EXTD=YEAR: 1959
EXTT0=
EXTT1=
EXTT2=
EXTT3=
EXTT4=
EXTT5=
EXTT6=
EXTT7=
EXTT8=
EXTT9=
EXTT10=
EXTT11=
EXTT12=
PLAYORDER=
